<?xml version="1.0" encoding="UTF-8"?>
<svg width="57px" height="57px" viewBox="0 0 57 57" version="1.1" xmlns="http://www.w3.org/2000/svg" xmlns:xlink="http://www.w3.org/1999/xlink">
    <!-- Generator: Sketch 56.3 (81716) - https://sketch.com -->
    <title>Group 6</title>
    <desc>Created with Sketch.</desc>
    <g id="Website" stroke="none" stroke-width="1" fill="none" fill-rule="evenodd">
        <g id="Otto-Website-Copy" transform="translate(-185.000000, -1129.000000)">
            <g id="Group-6" transform="translate(185.000000, 1129.000000)">
                <circle id="Oval-Copy-2" fill="#FFFFFF" cx="28.5" cy="28.5" r="28.5"></circle>
                <g id="notification" transform="translate(15.000000, 12.000000)" fill-rule="nonzero">
                    <path d="M17.4917623,28.7311969 C17.4917623,26.4680656 15.6653912,24.6334988 13.4122555,24.6334988 C11.1591199,24.6334988 9.33274871,26.4680656 9.33274871,28.7311969 C9.33274871,30.9943282 11.1591199,32.828895 13.4122555,32.828895 C15.6653912,32.828895 17.4917623,30.9943282 17.4917623,28.7311969 L17.4917623,28.7311969 Z" id="Path" fill="#F7C92B"></path>
                    <path d="M13.4122555,24.6334988 C12.9998405,24.6334988 12.6017751,24.6955244 12.2265625,24.809951 C13.9012011,25.3200578 15.1203763,26.8821932 15.1203763,28.7311969 C15.1203763,30.5799333 13.9012011,32.1423361 12.2265625,32.6524429 C12.6017751,32.7668694 12.9998405,32.828895 13.4122555,32.828895 C15.6653912,32.828895 17.4917623,30.9943282 17.4917623,28.7311969 C17.4917623,26.4680656 15.6653912,24.6334988 13.4122555,24.6334988 L13.4122555,24.6334988 Z" id="Path" fill="#F2B51D"></path>
                    <path d="M13.8889775,4.81552644 C12.5786565,5.07993716 11.303412,4.22762024 11.0400722,2.91144827 C10.7767326,1.5955437 11.6254783,0.314394811 12.9355336,0.0499840219 C14.2455888,-0.214426699 15.521099,0.637890219 15.7844388,1.95406219 C16.0475128,3.26996682 15.1990327,4.55111572 13.8889775,4.81552644 Z" id="Path" fill="#F7C92B"></path>
                    <path d="M15.7844388,1.95406219 C15.521099,0.637890219 14.2455888,-0.214426699 12.9355336,0.0499840219 C12.8135629,0.074580438 12.6958439,0.108266706 12.5823767,0.149438888 C13.3471514,0.430692708 13.952753,1.09319002 14.1249469,1.95406219 C14.3638393,3.14751975 13.6878189,4.31237068 12.5826424,4.71607164 C12.9870854,4.86471913 13.4359056,4.90696065 13.8889775,4.81552644 C15.1990327,4.55111572 16.0475128,3.26996682 15.7844388,1.95406219 Z" id="Path" fill="#F2B51D"></path>
                    <path d="M23.5164222,28.0454401 L3.30808884,28.0454401 C1.49978741,28.0454401 0.0340136054,26.5731347 0.0340136054,24.7570153 C0.0340136054,23.7515059 0.487085442,22.8000016 1.26620959,22.1687844 L1.91539116,21.6426365 C3.41703871,20.4261866 4.2902317,18.592422 4.2902317,16.6546576 L4.2902317,13.1986034 C4.2902317,8.09940622 8.40534653,3.965883 13.4818771,3.965883 C18.558142,3.965883 22.6735225,8.09940622 22.6735225,13.1986034 L22.6735225,16.7185546 C22.6735225,18.6196919 23.5140306,20.4229784 24.9678465,21.6404977 L25.6000212,22.1698538 C26.3544324,22.8016057 26.7904974,23.7373362 26.7904974,24.7238637 L26.7904974,24.7570153 C26.7904974,26.5731347 25.3247237,28.0454401 23.5164222,28.0454401 L23.5164222,28.0454401 Z" id="Path" fill="#F7E249"></path>
                    <path d="M25.6000212,22.1698538 L24.9678465,21.6404977 C23.5140306,20.4227111 22.6735225,18.6196919 22.6735225,16.7182872 L22.6735225,13.198336 C22.6735225,8.09940622 18.558142,3.96561567 13.4818771,3.96561567 C12.5823767,3.96561567 11.7134354,4.09608325 10.8920599,4.33803644 C14.7074299,5.46118051 17.4938882,9.00278724 17.4938882,13.198336 L17.4938882,16.7182872 C17.4938882,18.6196919 18.3343963,20.4227111 19.7882122,21.6404977 L20.4206527,22.1698538 C21.174798,22.8016057 21.6111288,23.7373362 21.6111288,24.7238637 L21.6111288,24.7570153 C21.6111288,26.5731347 20.145355,28.0454401 18.3370536,28.0454401 L23.5166879,28.0454401 C25.3247237,28.0454401 26.7904974,26.5731347 26.7904974,24.7570153 L26.7904974,24.7238637 C26.7904974,23.7373362 26.3544324,22.8016057 25.6000212,22.1698538 L25.6000212,22.1698538 Z" id="Path" fill="#F7C92B"></path>
                    <g id="Group" transform="translate(16.159492, 1.810976)">
                        <path d="M11.7834169,5.91794963 C11.7834169,2.6495898 9.14571762,-7.10542736e-15 5.89180767,-7.10542736e-15 C2.63789772,-7.10542736e-15 1.0658141e-13,2.6495898 1.0658141e-13,5.91794963 C1.0658141e-13,9.18630945 2.63789772,11.8358993 5.89180767,11.8358993 C9.14571762,11.8358993 11.7834169,9.18630945 11.7834169,5.91794963 Z" id="Path" fill="#FC476E"></path>
                        <path d="M5.89180767,8.68194893 C5.66457379,8.68194893 5.48040519,8.49705671 5.48040519,8.26883657 L5.48040519,4.28386954 L5.32699752,4.42463523 C5.15910241,4.57837929 4.89892455,4.56639929 4.74591382,4.39768008 C4.59290304,4.22916058 4.60481049,3.96779563 4.7727056,3.81405156 L5.61456249,3.04293506 C5.73502624,2.93271851 5.90867655,2.90416602 6.05791663,2.97025603 C6.20695826,3.03634604 6.30301171,3.18449941 6.30301171,3.34822689 L6.30301171,8.26883657 C6.30301171,8.49705671 6.11884311,8.68194893 5.89180767,8.68194893 L5.89180767,8.68194893 Z" id="Path" fill="#E3FAFF"></path>
                    </g>
                </g>
            </g>
        </g>
    </g>
</svg>