<?xml version="1.0" encoding="UTF-8"?>
<svg width="57px" height="57px" viewBox="0 0 57 57" version="1.1" xmlns="http://www.w3.org/2000/svg" xmlns:xlink="http://www.w3.org/1999/xlink">
    <!-- Generator: Sketch 56.3 (81716) - https://sketch.com -->
    <title>Group 4</title>
    <desc>Created with Sketch.</desc>
    <g id="Website" stroke="none" stroke-width="1" fill="none" fill-rule="evenodd">
        <g id="Otto-Website-Copy" transform="translate(-185.000000, -799.000000)">
            <g id="Group-4" transform="translate(185.000000, 799.000000)">
                <circle id="Oval" fill="#FFFFFF" cx="28.5" cy="28.5" r="28.5"></circle>
                <g id="Group-3" transform="translate(11.000000, 16.000000)">
                    <g id="Group-2" transform="translate(4.346405, 3.682864)">
                        <g id="id-card" transform="translate(0.121107, 0.121859)">
                            <path d="M24.4031977,18.8251895 L1.43301913,18.8251895 C0.641450901,18.8251895 0,18.1797544 0,17.3832696 L0,1.44191987 C0,0.645435068 0.641450901,0 1.43301913,0 L24.4031977,0 C25.1947659,0 25.8362168,0.645435068 25.8362168,1.44191987 L25.8362168,17.3832696 C25.8362168,18.1797544 25.1947659,18.8251895 24.4031977,18.8251895 Z" id="Path" fill="#E7ECED" fill-rule="nonzero"></path>
                            <path d="M9.43734638,12.6119805 L7.75932864,11.7496075 C7.64484747,11.6908909 7.57268425,11.5721129 7.57268425,11.4430259 L7.57268425,10.9262296 C8.43374299,10.5528634 8.92864018,9.82764535 9.16962972,8.9204505 C9.53267311,8.80705115 9.79994432,8.46909417 9.79994432,8.06793835 L9.79994432,7.61971955 C9.79994432,7.27638395 9.60349998,6.98011133 9.31974705,6.82950981 C9.12330271,5.14375892 8.015909,4.46156991 6.2363282,4.46156991 C6.15213777,4.46156991 6.0692837,4.46470744 5.98821143,4.47143072 C5.38328759,4.51983835 4.77123653,4.40554256 4.26787575,4.06399983 C4.0585133,3.92236269 3.88255976,3.77131296 3.7587241,3.61309172 C3.70215169,3.5409285 3.58945233,3.58709503 3.59969773,3.67808345 C3.61751581,3.83496003 3.64424293,4.0178333 3.68344271,4.21773888 C3.83044187,4.96178208 3.74268783,4.85331314 3.45670763,5.55522377 C3.29857217,5.94338125 3.19656366,6.37411951 3.14934574,6.83040625 C2.86782007,6.98235242 2.67271209,7.27772861 2.67271209,7.61971955 L2.67271209,8.06793835 C2.67271209,8.46909417 2.9399833,8.80705115 3.30302669,8.9204505 C3.54401623,9.82719713 4.03846796,10.5528634 4.89997216,10.9262296 L4.89997216,11.4394401 C4.89997216,11.5707682 4.82602712,11.6904427 4.70887325,11.7487111 L2.98898302,12.600775 C2.51947659,12.8585009 2.22726007,13.3533344 2.22726007,13.8916452 L2.22726007,14.3022136 C2.22726007,14.3022136 2.22726007,14.4227845 2.22726007,14.4855351 C2.22726007,14.9920223 4.02198624,15.2394391 6.2363282,15.2394391 C8.45067017,15.2394391 10.2453963,14.9920223 10.2453963,14.4855351 C10.2453963,14.4227845 10.2453963,14.3022136 10.2453963,14.3022136 L10.2453963,13.9275027 C10.2453963,13.3708149 9.93268902,12.8611902 9.43734638,12.6119805 Z" id="Path" fill="#157CD8"></path>
                            <g id="Group" transform="translate(12.472656, 5.378626)" fill="#9FA6AF">
                                <path d="M0.445452014,0.460358056 L4.89997216,0.460358056 C5.14630712,0.460358056 5.34542417,0.357468031 5.34542417,0.230179028 C5.34542417,0.102890026 5.14630712,0 4.89997216,0 L0.445452014,0 C0.19911705,0 0,0.102890026 0,0.230179028 C0,0.357468031 0.19911705,0.460358056 0.445452014,0.460358056 Z" id="Path"></path>
                                <path d="M6.68178022,0.460358056 L7.12723223,0.460358056 C7.3735672,0.460358056 7.57268425,0.357468031 7.57268425,0.230179028 C7.57268425,0.102890026 7.3735672,0 7.12723223,0 L6.68178022,0 C6.43544525,0 6.2363282,0.102890026 6.2363282,0.230179028 C6.2363282,0.357468031 6.43544525,0.460358056 6.68178022,0.460358056 Z" id="Path"></path>
                                <path d="M0.890904029,7.61971955 L0.445452014,7.61971955 C0.19911705,7.61971955 0,7.72260958 0,7.84989858 C0,7.97718758 0.19911705,8.08007761 0.445452014,8.08007761 L0.890904029,8.08007761 C1.13723899,8.08007761 1.33635604,7.97718758 1.33635604,7.84989858 C1.33635604,7.72260958 1.13723899,7.61971955 0.890904029,7.61971955 Z" id="Path"></path>
                                <path d="M3.56361612,7.61971955 L2.67271209,7.61971955 C2.42637712,7.61971955 2.22726007,7.72260958 2.22726007,7.84989858 C2.22726007,7.97718758 2.42637712,8.08007761 2.67271209,8.08007761 L3.56361612,8.08007761 C3.80995108,8.08007761 4.00906813,7.97718758 4.00906813,7.84989858 C4.00906813,7.72260958 3.80995108,7.61971955 3.56361612,7.61971955 Z" id="Path"></path>
                                <path d="M5.79087619,7.61971955 L5.34542417,7.61971955 C5.09908921,7.61971955 4.89997216,7.72260958 4.89997216,7.84989858 C4.89997216,7.97718758 5.09908921,8.08007761 5.34542417,8.08007761 L5.79087619,8.08007761 C6.03721115,8.08007761 6.2363282,7.97718758 6.2363282,7.84989858 C6.2363282,7.72260958 6.03721115,7.61971955 5.79087619,7.61971955 Z" id="Path"></path>
                                <path d="M8.46358828,7.61971955 L7.57268425,7.61971955 C7.32634928,7.61971955 7.12723223,7.72260958 7.12723223,7.84989858 C7.12723223,7.97718758 7.32634928,8.08007761 7.57268425,8.08007761 L8.46358828,8.08007761 C8.70992324,8.08007761 8.90904029,7.97718758 8.90904029,7.84989858 C8.90904029,7.72260958 8.70992324,7.61971955 8.46358828,7.61971955 Z" id="Path"></path>
                                <path d="M9.9291254,7.68959869 C9.84849859,7.73337614 9.79994432,7.79383071 9.79994432,7.85405365 C9.79994432,7.91427659 9.84849859,7.97449953 9.9291254,8.0185086 C10.0133158,8.06020141 10.1295788,8.08568034 10.2453963,8.08568034 C10.3612139,8.08568034 10.4770314,8.06020141 10.5616673,8.0185086 C10.6418486,7.97449953 10.6908483,7.91427659 10.6908483,7.85405365 C10.6908483,7.79383071 10.6418486,7.73337614 10.5616673,7.68959869 C10.3923955,7.60389682 10.0939426,7.60389682 9.9291254,7.68959869 Z" id="Path"></path>
                                <path d="M0.445452014,3.14967084 L10.2453963,3.14967084 C10.4917313,3.14967084 10.6908483,3.04678081 10.6908483,2.91949181 C10.6908483,2.79220281 10.4917313,2.68931278 10.2453963,2.68931278 L0.445452014,2.68931278 C0.19911705,2.68931278 0,2.79220281 0,2.91949181 C0,3.04678081 0.19911705,3.14967084 0.445452014,3.14967084 Z" id="Path"></path>
                                <path d="M10.2453963,5.37862557 L0.445452014,5.37862557 C0.19911705,5.37862557 0,5.48151559 0,5.60880459 C0,5.7360936 0.19911705,5.83898362 0.445452014,5.83898362 L10.2453963,5.83898362 C10.4917313,5.83898362 10.6908483,5.7360936 10.6908483,5.60880459 C10.6908483,5.48151559 10.4917313,5.37862557 10.2453963,5.37862557 Z" id="Path"></path>
                            </g>
                        </g>
                    </g>
                    <polyline id="Path-2" stroke="#041F78" stroke-width="0.5" stroke-linecap="round" points="28.8235294 -1.42108547e-14 34.9260278 -1.42108547e-14 34.9260278 5.80895655"></polyline>
                    <polyline id="Path-2-Copy" stroke="#041F78" stroke-width="0.5" stroke-linecap="round" transform="translate(3.051249, 2.904478) scale(-1, 1) translate(-3.051249, -2.904478) " points="0 -1.42108547e-14 6.1024984 -1.42108547e-14 6.1024984 5.80895655"></polyline>
                    <polyline id="Path-2-Copy-3" stroke="#041F78" stroke-width="0.5" stroke-linecap="round" transform="translate(31.874779, 23.390412) scale(1, -1) translate(-31.874779, -23.390412) " points="28.8235294 20.4859335 34.9260278 20.4859335 34.9260278 26.2948901"></polyline>
                    <polyline id="Path-2-Copy-2" stroke="#041F78" stroke-width="0.5" stroke-linecap="round" transform="translate(3.051249, 23.390412) scale(-1, -1) translate(-3.051249, -23.390412) " points="0 20.4859335 6.1024984 20.4859335 6.1024984 26.2948901"></polyline>
                </g>
            </g>
        </g>
    </g>
</svg>